<svg xmlns="http://www.w3.org/2000/svg" xmlns:xlink="http://www.w3.org/1999/xlink" version="1.1" id="Layer_1" x="0px" y="0px" viewBox="0 0 648.56 183.94" style="enable-background:new 0 0 648.56 183.94;" xml:space="preserve">
<style type="text/css">
	.st0{fill-rule:evenodd;clip-rule:evenodd;fill:url(#SVGID_1_);}
	.st1{fill-rule:evenodd;clip-rule:evenodd;fill:url(#SVGID_2_);}
	.st2{fill:#343434;}
</style>
<radialGradient id="SVGID_1_" cx="83.8426" cy="50.6335" r="92.1531" gradientUnits="userSpaceOnUse">
	<stop offset="0.156" style="stop-color:#FEEA10"/>
	<stop offset="0.231" style="stop-color:#FFDE0D"/>
	<stop offset="0.365" style="stop-color:#FCBE0E"/>
	<stop offset="0.541" style="stop-color:#F28D1C"/>
	<stop offset="0.763" style="stop-color:#E73438"/>
	<stop offset="0.796" style="stop-color:#E73239"/>
	<stop offset="0.841" style="stop-color:#E62247"/>
	<stop offset="0.893" style="stop-color:#CF1163"/>
	<stop offset="0.935" style="stop-color:#B4107F"/>
</radialGradient>
<path class="st0" d="M35.37,9.05c15,0,27.19,12.19,27.19,27.23c0,15-12.19,27.19-27.19,27.19c-15.04,0-27.23-12.19-27.23-27.19  C8.14,21.24,20.33,9.05,35.37,9.05L35.37,9.05z"/>
<radialGradient id="SVGID_2_" cx="218.9391" cy="-11.4856" r="271.6623" gradientUnits="userSpaceOnUse">
	<stop offset="0.156" style="stop-color:#FEEA10"/>
	<stop offset="0.231" style="stop-color:#FFDE0D"/>
	<stop offset="0.365" style="stop-color:#FCBE0E"/>
	<stop offset="0.541" style="stop-color:#F28D1C"/>
	<stop offset="0.763" style="stop-color:#E73438"/>
	<stop offset="0.796" style="stop-color:#E73239"/>
	<stop offset="0.841" style="stop-color:#E62247"/>
	<stop offset="0.893" style="stop-color:#CF1163"/>
	<stop offset="0.935" style="stop-color:#B4107F"/>
</radialGradient>
<path class="st1" d="M164.2,34.56C137.37,7.7,96.59,3.32,65.18,21.37c2.38,4.44,3.74,9.51,3.74,14.9  c0,17.36-14.11,31.48-31.48,31.48c-3.22,0-6.33-0.49-9.25-1.38c-9.67,28.66-3.09,61.6,19.77,84.43c32.09,32.13,84.15,32.13,116.24,0  C196.32,118.71,196.32,66.65,164.2,34.56z M136.5,123.1c-16.82,16.79-44.05,16.79-60.84,0c-16.79-16.79-16.79-44.02,0-60.84  c16.79-16.79,44.02-16.79,60.84,0C153.28,79.08,153.28,106.32,136.5,123.1z"/>
<g>
	<path class="st2" d="M267.55,76.98c-1.33-1.06-3.04-2.16-4.97-3.15c-3.3-1.44-8.05-3.04-14.47-3.04c-6.84,0-13.03,1.22-18.38,2.66   c-3.04,0.87-5.85,1.71-8.39,2.81v57.8h15.8V85.98c0.99-0.34,2.09-0.61,3.19-0.95c2.05-0.38,4.75-0.87,7.78-0.87   c9.34,0,13.97,4.63,13.97,14.01v35.89h15.84V98.17c0-3.04-0.38-5.35-0.87-7.18c-0.23-1.1-0.49-1.94-0.84-2.7   c0.95-0.84,2.05-1.44,3.38-2.05c2.09-0.99,5.24-2.09,9.27-2.09c9.38,0,13.97,4.63,13.97,14.01v35.89h15.84V98.17   c0-17.16-10.21-27.38-29.81-27.38c-6.19,0-10.94,1.44-14.85,3.04c-2.2,0.99-4.14,2.09-5.85,3.15H267.55z M353.49,70.79   c-7.29,0-12.8,1.44-17.05,3.27c-2.32,1.1-4.37,2.2-6.08,3.42l6.08,10.97c1.48-0.87,3.04-1.59,4.9-2.2   c3.04-0.99,7.29-2.09,12.15-2.09c9.72,0,13.97,4.14,13.97,10.97c-1.22-0.27-2.54-0.49-3.99-0.61c-2.58-0.38-6.11-0.61-9.99-0.61   c-21.3,0-30.42,9.11-30.42,21.27c0,12.19,9.11,21.3,30.42,21.3c7.9,0,14.96-0.99,20.81-2.05c3.27-0.65,6.19-1.37,9-2.2V97.56   C383.3,81.01,373.08,70.79,353.49,70.79L353.49,70.79z M353.49,123.12c-10.33,0-14.01-3.68-14.01-7.94s3.68-7.9,14.01-7.9   c3.76,0,6.95,0.23,9.72,0.61c1.59,0.11,2.92,0.38,4.25,0.61v12.8c-1.33,0.34-2.66,0.61-4.25,0.84   C360.66,122.63,357.25,123.12,353.49,123.12L353.49,123.12z M418.73,84.16c4.48,0,8.16,0.87,11.05,1.82   c1.59,0.61,2.92,1.22,4.14,1.82l4.25-12.15c-1.82-0.84-3.76-1.71-5.96-2.43c-3.76-1.33-8.73-2.43-14.7-2.43   c-6.84,0-12.65,1.22-17.51,2.66c-2.7,0.87-5.13,1.71-7.44,2.81v57.8h15.84V85.98c0.95-0.34,2.05-0.61,3.15-0.95   C413.37,84.65,415.92,84.16,418.73,84.16L418.73,84.16z M465.7,109.11l18.87,24.95h18.23l-27.34-35.89l24.3-24.95h-18.23   l-25.56,26.16h-0.61V48.88h-15.8v85.18h15.8v-14.62L465.7,109.11z M562.57,103.64c0-19.48-13.37-32.85-32.24-32.85   c-18.84,0-32.24,13.37-32.24,32.85c0,18.87,13.9,32.85,35.28,32.85c6.95,0,12.53-1.71,16.78-3.65c2.32-1.1,4.52-2.32,6.34-3.65   l-6.08-10.97c-1.22,0.87-2.7,1.71-4.25,2.43c-2.81,1.37-6.68,2.47-11.58,2.47c-11.54,0-17.01-5.51-19.56-12.19h39.64L562.57,103.64   z M515.03,98.17c1.33-7.9,7.4-14.01,15.3-14.01c7.94,0,13.86,6.11,15.23,14.01H515.03z M577.34,56.21l-6.08,17.01H560.9v12.76   h10.37v25.56c0,15.95,9,24.95,26.13,24.95c3.8,0,6.95-0.84,9.76-1.82c1.56-0.61,2.92-1.22,4.25-1.82l-3.65-12.19   c-0.76,0.49-1.59,0.87-2.58,1.25c-1.56,0.61-3.76,1.22-6.57,1.22c-7.29,0-11.54-4.29-11.54-11.58V85.98h18.87V73.22h-18.87V56.21   H577.34z"/>
	<g>
		<path class="st2" d="M628.11,76.94v-8.85h3.95c0.76,0,1.37,0.08,1.78,0.27c0.42,0.15,0.72,0.42,0.99,0.84    c0.23,0.38,0.34,0.84,0.34,1.33c0,0.61-0.19,1.14-0.61,1.56c-0.38,0.46-1.03,0.72-1.86,0.84c0.3,0.15,0.53,0.3,0.68,0.46    c0.34,0.3,0.68,0.68,0.99,1.18l1.52,2.39h-1.44l-1.18-1.82c-0.34-0.53-0.61-0.95-0.84-1.25c-0.23-0.27-0.42-0.46-0.61-0.57    c-0.15-0.11-0.34-0.19-0.53-0.23c-0.11-0.04-0.34-0.04-0.65-0.04h-1.37v3.91H628.11z M629.29,72.01h2.51    c0.53,0,0.95-0.04,1.25-0.15c0.3-0.11,0.53-0.3,0.68-0.53c0.15-0.27,0.23-0.53,0.23-0.8c0-0.42-0.15-0.76-0.42-1.03    c-0.3-0.3-0.8-0.42-1.44-0.42h-2.81V72.01z"/>
		<path class="st2" d="M631.49,63.88c2.47,0,4.71,0.99,6.3,2.62c1.63,1.59,2.62,3.84,2.62,6.3s-0.99,4.67-2.62,6.3    c-1.59,1.63-3.84,2.62-6.3,2.62s-4.71-0.99-6.3-2.62c-1.63-1.63-2.62-3.84-2.62-6.3s0.99-4.71,2.62-6.3    C626.78,64.87,629.03,63.88,631.49,63.88L631.49,63.88z M636.77,67.53c-1.37-1.37-3.23-2.2-5.28-2.2s-3.91,0.84-5.28,2.2    c-1.37,1.33-2.2,3.23-2.2,5.28c0,2.05,0.84,3.91,2.2,5.28c1.37,1.33,3.23,2.16,5.28,2.16s3.91-0.84,5.28-2.16    c1.37-1.37,2.2-3.23,2.2-5.28C638.97,70.75,638.14,68.85,636.77,67.53L636.77,67.53z"/>
	</g>
</g>
</svg>